<svg width="22" height="23" viewBox="0 0 22 23" fill="none" xmlns="http://www.w3.org/2000/svg">
<path d="M20.5833 0.5H13C12.1979 0.502926 11.4255 0.827326 10.8333 1.41C10.2412 0.827326 9.46879 0.502926 8.66667 0.5H1.08333C0.796016 0.5 0.520465 0.622916 0.317301 0.841709C0.114137 1.0605 0 1.35725 0 1.66667V19.1667C0 19.4761 0.114137 19.7728 0.317301 19.9916C0.520465 20.2104 0.796016 20.3333 1.08333 20.3333H7.32117C7.89552 20.3347 8.4461 20.5805 8.853 21.017L10.0674 22.3248C10.0772 22.3353 10.0902 22.3388 10.0999 22.3493C10.1931 22.4427 10.2971 22.5243 10.4184 22.578H10.4206C10.6849 22.6958 10.9818 22.6958 11.2461 22.578H11.2483C11.3696 22.5243 11.4736 22.4415 11.5668 22.3493C11.5765 22.3388 11.5895 22.3353 11.5992 22.3248L12.8137 21.017C13.2206 20.5805 13.7711 20.3347 14.3455 20.3333H20.5833C20.8707 20.3333 21.1462 20.2104 21.3494 19.9916C21.5525 19.7728 21.6667 19.4761 21.6667 19.1667V1.66667C21.6667 1.35725 21.5525 1.0605 21.3494 0.841709C21.1462 0.622916 20.8707 0.5 20.5833 0.5ZM19.5 18H14.3455C13.4798 18.0027 12.6344 18.2825 11.9167 18.8038V4C11.9167 3.35717 12.402 2.83333 13 2.83333H19.5V18Z" fill="#F8FDFE"/>
</svg>
